Jackie (2012) DVDRip H264-AC3-AVI Eng NL Subs
.
[IMG]http://i.imgur.com/zTK3Q.jpg[/IMG]
.
 Comedy | Drama  -   10 May 2012 (Netherlands) 
. 
http://www.imdb.com/title/tt2108546/
. 
http://www.moviemeter.nl/film/83518
.
PLOT
.
Dutch twin sisters travel to America to look for their long-lost mother. 
.
Source: DVD9
Format: H264/AC3/AVI
Audio: Dutch - English DD5.1
Subtitles: English, Dutch
.
Enjoy
.
General
.
Video
ID                                       : 0
Format                                   : AVC
Format/Info                              : Advanced Video Codec
Format profile                           : High@L2.2
Format settings, CABAC                   : Yes
Format settings, ReFrames                : 10 frames
Codec ID                                 : H264
Duration                                 : 1h 35mn
Bit rate                                 : 1 580 Kbps
Width                                    : 704 pixels
Height                                   : 288 pixels
Display aspect ratio                     : 2.40:1
Frame rate                               : 25.000 fps
Color space                              : YUV
Chroma subsampling                       : 4:2:0
Bit depth                                : 8 bits
Scan type                                : Progressive
Bits/(Pixel*Frame)                       : 0.312
Stream size                              : 1.06 GiB (78%)
Writing library                          : x264 core 93 r1538bm bd72d46
Encoding settings                        : cabac=1 / ref=10 / deblock=1:-2:-1 / analyse=0x3:0x133 / me=umh / subme=6 / psy=1 / psy_rd=1.00:0.00 / mixed_ref=1 / me_range=16 / chroma_me=1 / trellis=2 / 8x8dct=1 / cqm=0 / deadzone=21,11 / fast_pskip=0 / chroma_qp_offset=-2 / threads=8 / sliced_threads=0 / nr=0 / decimate=1 / interlaced=0 / constrained_intra=0 / bframes=16 / b_pyramid=2 / b_adapt=1 / b_bias=0 / direct=1 / wpredb=1 / wpredp=2 / keyint=250 / keyint_min=25 / scenecut=40 / intra_refresh=0 / rc_lookahead=40 / rc=2pass / mbtree=1 / bitrate=1580 / ratetol=1.0 / qcomp=0.60 / qpmin=10 / qpmax=51 / qpstep=4 / cplxblur=20.0 / qblur=0.5 / ip_ratio=1.40 / aq=1:1.00

Audio
ID                                       : 1
Format                                   : AC-3
Format/Info                              : Audio Coding 3
Mode extension                           : CM (complete main)
Format settings, Endianness              : Big
Codec ID                                 : 2000
Duration                                 : 1h 35mn
Bit rate mode                            : Constant
Bit rate                                 : 448 Kbps
Channel(s)                               : 6 channels
Channel positions                        : Front: L C R, Side: L R, LFE
Sampling rate                            : 48.0 KHz
Bit depth                                : 16 bits
Compression mode                         : Lossy
Stream size                              : 307 MiB (22%)
Alignment                                : Split accross interleaves
Interleave, duration                     : 40 ms (1.00 video frame)
Interleave, preload duration             : 500 ms


	